<mxfile host="app.diagrams.net" modified="2022-07-07T15:54:31.154Z" agent="5.0 (Windows)" etag="2DHGwaSHRMz_rw9RhJ3H" version="20.0.4" type="github">
  <diagram id="C5RBs43oDa-KdzZeNtuy" name="Page-1">
    <mxGraphModel dx="1422" dy="752" grid="1" gridSize="10" guides="1" tooltips="1" connect="1" arrows="1" fold="1" page="1" pageScale="1" pageWidth="827" pageHeight="1169" math="0" shadow="0">
      <root>
        <mxCell id="WIyWlLk6GJQsqaUBKTNV-0" />
        <mxCell id="WIyWlLk6GJQsqaUBKTNV-1" parent="WIyWlLk6GJQsqaUBKTNV-0" />
        <mxCell id="KIj804W6Yuo1nUTJbIJE-8" value="" style="edgeStyle=orthogonalEdgeStyle;rounded=0;orthogonalLoop=1;jettySize=auto;html=1;" edge="1" parent="WIyWlLk6GJQsqaUBKTNV-1" source="KIj804W6Yuo1nUTJbIJE-0" target="KIj804W6Yuo1nUTJbIJE-2">
          <mxGeometry relative="1" as="geometry" />
        </mxCell>
        <mxCell id="KIj804W6Yuo1nUTJbIJE-0" value="Begin" style="ellipse;whiteSpace=wrap;html=1;" vertex="1" parent="WIyWlLk6GJQsqaUBKTNV-1">
          <mxGeometry x="160" y="40" width="120" height="50" as="geometry" />
        </mxCell>
        <mxCell id="KIj804W6Yuo1nUTJbIJE-1" value="End" style="ellipse;whiteSpace=wrap;html=1;" vertex="1" parent="WIyWlLk6GJQsqaUBKTNV-1">
          <mxGeometry x="380" y="390" width="120" height="50" as="geometry" />
        </mxCell>
        <mxCell id="KIj804W6Yuo1nUTJbIJE-6" value="" style="edgeStyle=orthogonalEdgeStyle;rounded=0;orthogonalLoop=1;jettySize=auto;html=1;" edge="1" parent="WIyWlLk6GJQsqaUBKTNV-1" source="KIj804W6Yuo1nUTJbIJE-2" target="KIj804W6Yuo1nUTJbIJE-3">
          <mxGeometry relative="1" as="geometry" />
        </mxCell>
        <mxCell id="KIj804W6Yuo1nUTJbIJE-2" value="Create List&amp;lt;User&amp;gt;" style="rounded=0;whiteSpace=wrap;html=1;" vertex="1" parent="WIyWlLk6GJQsqaUBKTNV-1">
          <mxGeometry x="160" y="130" width="120" height="50" as="geometry" />
        </mxCell>
        <mxCell id="KIj804W6Yuo1nUTJbIJE-10" value="" style="edgeStyle=orthogonalEdgeStyle;rounded=0;orthogonalLoop=1;jettySize=auto;html=1;" edge="1" parent="WIyWlLk6GJQsqaUBKTNV-1" source="KIj804W6Yuo1nUTJbIJE-3" target="KIj804W6Yuo1nUTJbIJE-9">
          <mxGeometry relative="1" as="geometry" />
        </mxCell>
        <mxCell id="KIj804W6Yuo1nUTJbIJE-3" value="Add value to List&amp;lt;User&amp;gt;" style="rounded=0;whiteSpace=wrap;html=1;" vertex="1" parent="WIyWlLk6GJQsqaUBKTNV-1">
          <mxGeometry x="160" y="220" width="120" height="50" as="geometry" />
        </mxCell>
        <mxCell id="KIj804W6Yuo1nUTJbIJE-12" value="" style="edgeStyle=orthogonalEdgeStyle;rounded=0;orthogonalLoop=1;jettySize=auto;html=1;" edge="1" parent="WIyWlLk6GJQsqaUBKTNV-1" source="KIj804W6Yuo1nUTJbIJE-9" target="KIj804W6Yuo1nUTJbIJE-11">
          <mxGeometry relative="1" as="geometry" />
        </mxCell>
        <mxCell id="KIj804W6Yuo1nUTJbIJE-9" value="for (int i = 0; i &amp;lt; users.Count; i++)" style="shape=hexagon;perimeter=hexagonPerimeter2;whiteSpace=wrap;html=1;fixedSize=1;" vertex="1" parent="WIyWlLk6GJQsqaUBKTNV-1">
          <mxGeometry x="160" y="310" width="120" height="70" as="geometry" />
        </mxCell>
        <mxCell id="KIj804W6Yuo1nUTJbIJE-14" value="" style="edgeStyle=orthogonalEdgeStyle;rounded=0;orthogonalLoop=1;jettySize=auto;html=1;" edge="1" parent="WIyWlLk6GJQsqaUBKTNV-1" source="KIj804W6Yuo1nUTJbIJE-11" target="KIj804W6Yuo1nUTJbIJE-13">
          <mxGeometry relative="1" as="geometry" />
        </mxCell>
        <mxCell id="KIj804W6Yuo1nUTJbIJE-11" value="Print greetings " style="shape=parallelogram;perimeter=parallelogramPerimeter;whiteSpace=wrap;html=1;fixedSize=1;" vertex="1" parent="WIyWlLk6GJQsqaUBKTNV-1">
          <mxGeometry x="160" y="420" width="120" height="60" as="geometry" />
        </mxCell>
        <mxCell id="KIj804W6Yuo1nUTJbIJE-13" value="&amp;nbsp;if not premium?" style="rhombus;whiteSpace=wrap;html=1;" vertex="1" parent="WIyWlLk6GJQsqaUBKTNV-1">
          <mxGeometry x="180" y="510" width="80" height="80" as="geometry" />
        </mxCell>
        <mxCell id="KIj804W6Yuo1nUTJbIJE-15" value="Show Ads" style="whiteSpace=wrap;html=1;" vertex="1" parent="WIyWlLk6GJQsqaUBKTNV-1">
          <mxGeometry x="270" y="610" width="120" height="60" as="geometry" />
        </mxCell>
        <mxCell id="KIj804W6Yuo1nUTJbIJE-19" value="No" style="endArrow=classic;html=1;rounded=0;exitX=0;exitY=0.5;exitDx=0;exitDy=0;entryX=0;entryY=0.5;entryDx=0;entryDy=0;" edge="1" parent="WIyWlLk6GJQsqaUBKTNV-1" source="KIj804W6Yuo1nUTJbIJE-13" target="KIj804W6Yuo1nUTJbIJE-9">
          <mxGeometry x="-0.8961" y="-10" width="50" height="50" relative="1" as="geometry">
            <mxPoint x="360" y="440" as="sourcePoint" />
            <mxPoint x="60" y="370" as="targetPoint" />
            <Array as="points">
              <mxPoint x="80" y="550" />
              <mxPoint x="80" y="345" />
            </Array>
            <mxPoint as="offset" />
          </mxGeometry>
        </mxCell>
        <mxCell id="KIj804W6Yuo1nUTJbIJE-21" value="" style="endArrow=none;html=1;rounded=0;exitX=0;exitY=0.5;exitDx=0;exitDy=0;" edge="1" parent="WIyWlLk6GJQsqaUBKTNV-1" source="KIj804W6Yuo1nUTJbIJE-15">
          <mxGeometry width="50" height="50" relative="1" as="geometry">
            <mxPoint x="360" y="440" as="sourcePoint" />
            <mxPoint x="80" y="550" as="targetPoint" />
            <Array as="points">
              <mxPoint x="80" y="640" />
            </Array>
          </mxGeometry>
        </mxCell>
        <mxCell id="KIj804W6Yuo1nUTJbIJE-22" value="" style="endArrow=classic;html=1;rounded=0;exitX=1;exitY=0.5;exitDx=0;exitDy=0;entryX=0.5;entryY=0;entryDx=0;entryDy=0;" edge="1" parent="WIyWlLk6GJQsqaUBKTNV-1" source="KIj804W6Yuo1nUTJbIJE-9" target="KIj804W6Yuo1nUTJbIJE-1">
          <mxGeometry width="50" height="50" relative="1" as="geometry">
            <mxPoint x="360" y="530" as="sourcePoint" />
            <mxPoint x="430" y="380" as="targetPoint" />
            <Array as="points">
              <mxPoint x="440" y="345" />
            </Array>
          </mxGeometry>
        </mxCell>
        <mxCell id="KIj804W6Yuo1nUTJbIJE-23" value="Yes" style="endArrow=classic;html=1;rounded=0;exitX=1;exitY=0.5;exitDx=0;exitDy=0;entryX=0.5;entryY=0;entryDx=0;entryDy=0;" edge="1" parent="WIyWlLk6GJQsqaUBKTNV-1" source="KIj804W6Yuo1nUTJbIJE-13" target="KIj804W6Yuo1nUTJbIJE-15">
          <mxGeometry x="-0.8462" y="10" width="50" height="50" relative="1" as="geometry">
            <mxPoint x="360" y="320" as="sourcePoint" />
            <mxPoint x="410" y="270" as="targetPoint" />
            <Array as="points">
              <mxPoint x="330" y="550" />
            </Array>
            <mxPoint as="offset" />
          </mxGeometry>
        </mxCell>
      </root>
    </mxGraphModel>
  </diagram>
</mxfile>
